# xmcd
#
# Track frame offsets: 
#        150
#        16448
#        36556
#        55438
#        74167
#        87746
#        105864
#        119980
#        135307
#        157338
#        176176
#
# Disc length: 2547 seconds
#
# Revision: 0
# Processed by: cddbd v1.5.1PL0 Copyright (c) Steve Scherf et al.
# Submitted via: ExactAudioCopy v0.95a5
#
DISCID=ae09f10b
DTITLE=Anabell López - Yo te invito a caminar conmigo
DYEAR=2004
DGENRE=Latin
TTITLE0=Qué distracción !
TTITLE1=Tu beso
TTITLE2=¿Qué se puede hacer con el amor?
TTITLE3=Hay un grupo que dice
TTITLE4=Cuántas veces al día
TTITLE5=Viven muy felices
TTITLE6=Sueño del colgado y la tierra
TTITLE7=Voy a cantarle al porvenir
TTITLE8=Grita más
TTITLE9=Quédate
TTITLE10=Yo te invito a caminar conmigo
EXTD=
EXTT0=
EXTT1=
EXTT2=
EXTT3=
EXTT4=
EXTT5=
EXTT6=
EXTT7=
EXTT8=
EXTT9=
EXTT10=
PLAYORDER=
